<?xml version="1.0" encoding="UTF-8" standalone="no"?>
<!-- Generator: Adobe Illustrator 13.0.2, SVG Export Plug-In . SVG Version: 6.00 Build 14948)  -->

<svg
   id="Layer_1"
   style="enable-background:new -0.258 -0.548 123.547 123.539"
   xml:space="preserve"
   viewBox="-0.258 -0.548 123.547 123.539"
   version="1.1"
   y="0px"
   x="0px"
   sodipodi:docname="johnny-automatic-Services-5 - Copy.svg"
   inkscape:version="1.1 (c68e22c387, 2021-05-23)"
   xmlns:inkscape="http://www.inkscape.org/namespaces/inkscape"
   xmlns:sodipodi="http://sodipodi.sourceforge.net/DTD/sodipodi-0.dtd"
   xmlns="http://www.w3.org/2000/svg"
   xmlns:svg="http://www.w3.org/2000/svg"
   xmlns:rdf="http://www.w3.org/1999/02/22-rdf-syntax-ns#"
   xmlns:cc="http://creativecommons.org/ns#"
   xmlns:dc="http://purl.org/dc/elements/1.1/"><g
   id="g1014"
   transform="matrix(2.0230283,0,0,2.0230283,-63.108168,-54.523483)"><g
     id="g1027"
     transform="translate(-0.26862041,-3.0443647)"
     style="opacity:0.7114094"><path
       d="m 81.397438,30.454812 c 1.12325,0 2.02431,0.905594 2.02431,2.009409 v 6.887831 H 39.023644 V 32.47912 c 0,-1.103167 0.90106,-2.004227 2.009409,-2.004227 z m -29.306802,6.69544 c 1.214585,0 2.206334,-1.007296 2.206334,-2.227063 0,-1.214585 -0.991749,-2.211516 -2.206334,-2.211516 -1.219767,0 -2.206334,0.996931 -2.206334,2.211516 0,1.219767 0.986567,2.227063 2.206334,2.227063 z m -6.503051,0 c 1.234667,0 2.206335,-1.007296 2.206335,-2.227063 0,-1.214585 -0.971668,-2.211516 -2.206335,-2.211516 -1.214585,0 -2.206334,0.996931 -2.206334,2.211516 0,1.219767 0.991749,2.227063 2.206334,2.227063 z"
       id="path6"
       style="fill:#f2f2f2;fill-opacity:1;stroke-width:0.647779" /><path
       d="M 39.02332,89.051577 V 44.477925 c 0,-1.10835 0.905595,-2.00941 2.00941,-2.00941 h 40.379932 c 1.10835,0 2.00941,0.90106 2.00941,2.00941 V 89.063237 L 39.02332,89.050277 Z m 21.968767,-10.13968 c 7.895127,0 14.301658,-6.407179 14.301658,-14.301658 0,-7.894479 -6.407179,-14.302306 -14.301658,-14.302306 -7.899661,0 -14.296476,6.407179 -14.296476,14.301658 0,7.894479 6.396167,14.302306 14.296476,14.302306 z"
       id="path8"
       style="opacity:1;fill:#f2f2f2;fill-opacity:1;stroke-width:0.647779" /><path
       d="m 72.783927,60.950937 c 0.30381,1.042276 0.46057,2.140909 0.46057,3.28942 0,6.629368 -5.394701,12.003987 -12.024068,12.003987 -6.639732,0 -12.019534,-5.374619 -12.019534,-12.003987 0,-1.234666 0.19239,-2.418805 0.521462,-3.532337 v 0.02008 c 0.769561,0.829805 1.862364,1.356449 3.091848,1.356449 1.067539,0 2.024308,-0.384781 2.767958,-1.047458 h -0.0149 c 0.748832,0.662677 1.725683,1.047458 2.783505,1.047458 1.097985,0 2.105281,-0.419761 2.854113,-1.133613 v 0.0149 c 0.74365,0.698953 1.740582,1.118714 2.848931,1.118714 1.138795,0 2.186253,-0.450206 2.925368,-1.18414 v 0.0149 c 0.74365,0.733934 1.771027,1.169241 2.915007,1.169241 1.10316,0 2.13054,-0.435307 2.87484,-1.148512 z"
       id="path10"
       style="fill:#f2f2f2;fill-opacity:1;stroke-width:0.647779" /></g></g><defs
   id="defs19">
	
	
	
	
	
</defs><sodipodi:namedview
   id="namedview17"
   pagecolor="#ffffff"
   bordercolor="#999999"
   borderopacity="1"
   inkscape:pageshadow="0"
   inkscape:pageopacity="0"
   inkscape:pagecheckerboard="0"
   showgrid="false"
   inkscape:zoom="5.5205238"
   inkscape:cx="52.984103"
   inkscape:cy="55.610665"
   inkscape:window-width="1920"
   inkscape:window-height="1000"
   inkscape:window-x="-11"
   inkscape:window-y="-11"
   inkscape:window-maximized="1"
   inkscape:current-layer="g1014" />

<metadata
   id="metadata14"><rdf:RDF><cc:Work><dc:format>image/svg+xml</dc:format><dc:type
         rdf:resource="http://purl.org/dc/dcmitype/StillImage" /><cc:license
         rdf:resource="http://creativecommons.org/licenses/publicdomain/" /><dc:publisher><cc:Agent
           rdf:about="http://openclipart.org/"><dc:title>Openclipart</dc:title></cc:Agent></dc:publisher><dc:date>2008-02-01T04:00:44</dc:date><dc:description>Services - other symbols set of map pictographs for U.S. National Park maps. PD US Government - National Park Service, U.S. Dept. of the Interior.</dc:description><dc:source>https://openclipart.org/detail/12373/services-by-johnny_automatic-12373</dc:source><dc:creator><cc:Agent><dc:title>johnny_automatic</dc:title></cc:Agent></dc:creator><dc:subject><rdf:Bag><rdf:li>cartography</rdf:li><rdf:li>externalsource</rdf:li><rdf:li>map</rdf:li><rdf:li>park</rdf:li><rdf:li>pictograph</rdf:li><rdf:li>services</rdf:li><rdf:li>symbol</rdf:li></rdf:Bag></dc:subject></cc:Work><cc:License
       rdf:about="http://creativecommons.org/licenses/publicdomain/"><cc:permits
         rdf:resource="http://creativecommons.org/ns#Reproduction" /><cc:permits
         rdf:resource="http://creativecommons.org/ns#Distribution" /><cc:permits
         rdf:resource="http://creativecommons.org/ns#DerivativeWorks" /></cc:License></rdf:RDF></metadata></svg>
