<?xml version="1.0" encoding="UTF-8" standalone="no"?>
<svg
   width="24"
   height="24"
   viewBox="0 0 24 24"
   version="1.1"
   id="svg6"
   sodipodi:docname="bxs-edit.svg"
   inkscape:version="1.1 (c68e22c387, 2021-05-23)"
   xmlns:inkscape="http://www.inkscape.org/namespaces/inkscape"
   xmlns:sodipodi="http://sodipodi.sourceforge.net/DTD/sodipodi-0.dtd"
   xmlns="http://www.w3.org/2000/svg"
   xmlns:svg="http://www.w3.org/2000/svg">
  <defs
     id="defs10" />
  <sodipodi:namedview
     id="namedview8"
     pagecolor="#ffffff"
     bordercolor="#999999"
     borderopacity="1"
     inkscape:pageshadow="0"
     inkscape:pageopacity="0"
     inkscape:pagecheckerboard="0"
     showgrid="false"
     inkscape:zoom="28.416667"
     inkscape:cx="11.982405"
     inkscape:cy="12"
     inkscape:window-width="1920"
     inkscape:window-height="1000"
     inkscape:window-x="-11"
     inkscape:window-y="-11"
     inkscape:window-maximized="1"
     inkscape:current-layer="svg6" />
  <path
     d="m18.988 2.012 3 3L19.701 7.3l-3-3zM8 16h3l7.287-7.287-3-3L8 13z"
     id="path2"
     style="fill:#ffffff" />
  <path
     d="M19 19H8.158c-.026 0-.053.01-.079.01-.033 0-.066-.009-.1-.01H5V5h6.847l2-2H5c-1.103 0-2 .896-2 2v14c0 1.104.897 2 2 2h14a2 2 0 0 0 2-2v-8.668l-2 2V19z"
     id="path4"
     style="fill:#ffffff" />
</svg>
