<?xml version="1.0" encoding="UTF-8" standalone="no"?>
<svg
   width="24"
   height="24"
   viewBox="0 0 24 24"
   version="1.1"
   id="svg4"
   sodipodi:docname="bxs-shopping-bag.svg"
   inkscape:version="1.1 (c68e22c387, 2021-05-23)"
   xmlns:inkscape="http://www.inkscape.org/namespaces/inkscape"
   xmlns:sodipodi="http://sodipodi.sourceforge.net/DTD/sodipodi-0.dtd"
   xmlns="http://www.w3.org/2000/svg"
   xmlns:svg="http://www.w3.org/2000/svg">
  <defs
     id="defs8" />
  <sodipodi:namedview
     id="namedview6"
     pagecolor="#ffffff"
     bordercolor="#999999"
     borderopacity="1"
     inkscape:pageshadow="0"
     inkscape:pageopacity="0"
     inkscape:pagecheckerboard="0"
     showgrid="false"
     inkscape:zoom="32.458333"
     inkscape:cx="12"
     inkscape:cy="11.984596"
     inkscape:window-width="1920"
     inkscape:window-height="1046"
     inkscape:window-x="-11"
     inkscape:window-y="1069"
     inkscape:window-maximized="1"
     inkscape:current-layer="svg4" />
  <path
     d="M5 22h14a2 2 0 0 0 2-2V9a1 1 0 0 0-1-1h-3v-.777c0-2.609-1.903-4.945-4.5-5.198A5.005 5.005 0 0 0 7 7v1H4a1 1 0 0 0-1 1v11a2 2 0 0 0 2 2zm12-12v2h-2v-2h2zM9 7c0-1.654 1.346-3 3-3s3 1.346 3 3v1H9V7zm-2 3h2v2H7v-2z"
     id="path2"
     style="fill:#ffffff" />
</svg>
