<?xml version="1.0" encoding="UTF-8" standalone="no"?>
<svg
   width="24"
   height="24"
   viewBox="0 0 24 24"
   version="1.1"
   id="svg4"
   sodipodi:docname="iconmonstr-id-card-1.svg"
   inkscape:version="1.1 (c68e22c387, 2021-05-23)"
   xmlns:inkscape="http://www.inkscape.org/namespaces/inkscape"
   xmlns:sodipodi="http://sodipodi.sourceforge.net/DTD/sodipodi-0.dtd"
   xmlns="http://www.w3.org/2000/svg"
   xmlns:svg="http://www.w3.org/2000/svg">
  <defs
     id="defs8" />
  <sodipodi:namedview
     id="namedview6"
     pagecolor="#ffffff"
     bordercolor="#999999"
     borderopacity="1"
     inkscape:pageshadow="0"
     inkscape:pageopacity="0"
     inkscape:pagecheckerboard="0"
     showgrid="false"
     inkscape:zoom="32.458333"
     inkscape:cx="12"
     inkscape:cy="11.984596"
     inkscape:window-width="1920"
     inkscape:window-height="1046"
     inkscape:window-x="-11"
     inkscape:window-y="1069"
     inkscape:window-maximized="1"
     inkscape:current-layer="svg4" />
  <path
     d="M20 21.193l-.003.807h-19.993l-.004-.833c-.009-2.224.088-3.495 2.647-4.086 2.805-.647 5.573-1.227 4.242-3.682-3.943-7.275-1.123-11.399 3.111-11.399 4.153 0 7.043 3.971 3.11 11.398-1.292 2.44 1.375 3.02 4.242 3.682 2.57.594 2.657 1.873 2.648 4.113zm4-17.193h-7v2h7v-2zm0 4h-7v2h7v-2zm0 4h-7v2h7v-2z"
     id="path2"
     style="fill:#ffffff" />
</svg>
