<?xml version="1.0" encoding="UTF-8" standalone="no"?>
<svg
   width="24"
   height="24"
   fill-rule="evenodd"
   clip-rule="evenodd"
   version="1.1"
   id="svg4"
   sodipodi:docname="iconmonstr-file-37.svg"
   inkscape:version="1.1 (c68e22c387, 2021-05-23)"
   xmlns:inkscape="http://www.inkscape.org/namespaces/inkscape"
   xmlns:sodipodi="http://sodipodi.sourceforge.net/DTD/sodipodi-0.dtd"
   xmlns="http://www.w3.org/2000/svg"
   xmlns:svg="http://www.w3.org/2000/svg">
  <defs
     id="defs8" />
  <sodipodi:namedview
     id="namedview6"
     pagecolor="#ffffff"
     bordercolor="#999999"
     borderopacity="1"
     inkscape:pageshadow="0"
     inkscape:pageopacity="0"
     inkscape:pagecheckerboard="0"
     showgrid="false"
     inkscape:zoom="32.458333"
     inkscape:cx="12"
     inkscape:cy="11.984596"
     inkscape:window-width="1920"
     inkscape:window-height="1046"
     inkscape:window-x="-11"
     inkscape:window-y="-11"
     inkscape:window-maximized="1"
     inkscape:current-layer="svg4" />
  <path
     d="M10.409 0c4.857 0 3.335 8 3.335 8 3.009-.745 8.256-.419 8.256 3v11.515l-4.801-4.801c.507-.782.801-1.714.801-2.714 0-2.76-2.24-5-5-5s-5 2.24-5 5 2.24 5 5 5c1.037 0 2-.316 2.799-.858l4.858 4.858h-18.657v-24h8.409zm2.591 12c1.656 0 3 1.344 3 3s-1.344 3-3 3-3-1.344-3-3 1.344-3 3-3zm1.568-11.925c2.201 1.174 5.938 4.884 7.432 6.882-1.286-.9-4.044-1.657-6.091-1.18.222-1.468-.186-4.534-1.341-5.702z"
     id="path2"
     style="fill:#30397e;fill-opacity:1" />
</svg>
