<?xml version="1.0" encoding="UTF-8" standalone="no"?>
<svg
   id="ad6b5295-7ebf-4dc3-a7a8-a4a4b8d35fca"
   data-name="Layer 1"
   width="790"
   height="512.20805"
   viewBox="0 0 790 512.20805"
   version="1.1"
   sodipodi:docname="undraw_Notify_re_65on.svg"
   inkscape:version="1.1 (c68e22c387, 2021-05-23)"
   xmlns:inkscape="http://www.inkscape.org/namespaces/inkscape"
   xmlns:sodipodi="http://sodipodi.sourceforge.net/DTD/sodipodi-0.dtd"
   xmlns="http://www.w3.org/2000/svg"
   xmlns:svg="http://www.w3.org/2000/svg">
  <defs
     id="defs43" />
  <sodipodi:namedview
     id="namedview41"
     pagecolor="#ffffff"
     bordercolor="#999999"
     borderopacity="1"
     inkscape:pageshadow="0"
     inkscape:pageopacity="0"
     inkscape:pagecheckerboard="0"
     showgrid="false"
     inkscape:zoom="1.3314902"
     inkscape:cx="394.67059"
     inkscape:cy="256.10403"
     inkscape:window-width="1920"
     inkscape:window-height="1000"
     inkscape:window-x="-11"
     inkscape:window-y="1069"
     inkscape:window-maximized="1"
     inkscape:current-layer="ad6b5295-7ebf-4dc3-a7a8-a4a4b8d35fca" />
  <path
     d="M925.56335,704.58909,903,636.49819s24.81818,24.81818,24.81818,45.18181l-4.45454-47.09091s12.72727,17.18182,11.45454,43.27273S925.56335,704.58909,925.56335,704.58909Z"
     transform="translate(-205 -193.89598)"
     fill="#e6e6e6"
     id="path2" />
  <path
     d="M441.02093,642.58909,419,576.13509s24.22155,24.22155,24.22155,44.09565l-4.34745-45.95885s12.42131,16.76877,11.17917,42.23245S441.02093,642.58909,441.02093,642.58909Z"
     transform="translate(-205 -193.89598)"
     fill="#e6e6e6"
     id="path4" />
  <path
     d="M784.72555,673.25478c.03773,43.71478-86.66489,30.26818-192.8092,30.35979s-191.53562,13.68671-191.57335-30.028,86.63317-53.29714,192.77748-53.38876S784.68782,629.54,784.72555,673.25478Z"
     transform="translate(-205 -193.89598)"
     fill="#e6e6e6"
     id="path6" />
  <rect
     y="509.69312"
     width="790"
     height="2"
     fill="#3f3d56"
     id="rect8" />
  <circle
     cx="361.7217"
     cy="403.5046"
     r="62.98931"
     fill="#30397e"
     id="circle36" />
  <path
     d="M524.65625,529.9355a45.15919,45.15919,0,0,1-41.25537-26.78614L383.44873,278.05757a59.83039,59.83039,0,1,1,111.87012-41.86426l72.37744,235.41211a45.07978,45.07978,0,0,1-43.04,58.33008Z"
     transform="translate(-205 -193.89598)"
     fill="#30397e"
     id="path38" />
</svg>
